SplineFontDB: 3.2
FontName: ExploreSans
FullName: Explore Sans Regular
FamilyName: Explore Sans
Weight: Regular
Copyright: Copyright (c) 2024, Bastien
UComments: "2024-12-25: Created with FontForge (http://fontforge.org)"
Version: 001.000
ItalicAngle: 0
UnderlinePosition: -102
UnderlineWidth: 64
Ascent: 800
Descent: 224
InvalidEm: 0
LayerCount: 2
Layer: 0 0 "Arri+AOgA-re" 1
Layer: 1 0 "Avant" 0
XUID: [1021 760 1580941675 4706664]
StyleMap: 0x0040
FSType: 0
OS2Version: 0
OS2_WeightWidthSlopeOnly: 0
OS2_UseTypoMetrics: 1
CreationTime: 1735138560
ModificationTime: 1745773189
PfmFamily: 33
TTFWeight: 400
TTFWidth: 5
LineGap: 192
VLineGap: 0
OS2TypoAscent: 800
OS2TypoAOffset: 0
OS2TypoDescent: -224
OS2TypoDOffset: 0
OS2TypoLinegap: 192
OS2WinAscent: 800
OS2WinAOffset: 0
OS2WinDescent: 224
OS2WinDOffset: 0
HheadAscent: 800
HheadAOffset: 0
HheadDescent: 224
HheadDOffset: 0
OS2FamilyClass: 2049
OS2Vendor: 'PfEd'
Lookup: 260 0 0 "Anchors Latin" { "Anchors Latin 1"  } ['mark' ('DFLT' <'dflt' > 'latn' <'dflt' > ) ]
Lookup: 258 0 0 "Kerning Latin" { "Kerning Latin-1" [153,0,4] } ['kern' ('DFLT' <'dflt' > 'latn' <'dflt' > ) ]
MarkAttachClasses: 1
DEI: 91125
KernClass2: 37 35 "Kerning Latin-1"
 50 A Agrave Aacute Acircumflex Atilde Adieresis Aring
 10 C Ccedilla
 1 D
 1 F
 1 G
 1 J
 1 K
 1 L
 46 O Q Ograve Oacute Ocircumflex Otilde Odieresis
 1 P
 1 R
 1 S
 1 T
 37 U Ugrave Uacute Ucircumflex Udieresis
 1 V
 1 W
 1 X
 8 Y Yacute
 50 a agrave aacute acircumflex atilde adieresis aring
 3 b p
 10 c ccedilla
 40 e ae egrave eacute ecircumflex edieresis
 1 f
 1 g
 46 i igrave iacute icircumflex idieresis dotlessi
 1 j
 1 k
 1 l
 49 ograve oacute ocircumflex otilde odieresis oslash
 1 r
 1 s
 1 t
 1 v
 1 w
 1 x
 18 y yacute ydieresis
 50 A Agrave Aacute Acircumflex Atilde Adieresis Aring
 10 C Ccedilla
 1 D
 1 G
 1 J
 1 K
 1 L
 46 O Q Ograve Oacute Ocircumflex Otilde Odieresis
 1 R
 1 S
 1 T
 1 V
 1 W
 1 X
 8 Y Yacute
 53 a agrave aacute acircumflex atilde adieresis aring ae

StartChar: A
Encoding: 65 65 0
Width: 619
VWidth: 1048
Flags: W
HStem: -0 21G<20 104.808 514.87 598> 182 66<152 498> 648 42<304 336> 688 20G<265.853 377.412>
VStem: 304 32<648 690>
AnchorPoint: "AccentCenter" 321 880 basechar 0
LayerCount: 2
Fore
SplineSet
304 648 m 5xe8
 304 690 l 5
 336 690 l 5
 336 648 l 5
 304 648 l 5xe8
152 182 m 5
 152 248 l 5
 498 248 l 5
 498 182 l 5
 152 182 l 5
598 -0 m 5
 521 -0 l 5
 304 708 l 5
 371 708 l 5xd8
 598 -0 l 5
20 -0 m 5
 273 708 l 5
 339 708 l 5
 98 -0 l 5
 20 -0 l 5
EndSplineSet
Validated: 1048581
Colour: ff0000
EndChar

StartChar: B
Encoding: 66 66 1
Width: 609
VWidth: 1048
Flags: W
HStem: 0 66<154 432.359> 344 68<154 420.653> 642 66<154 417.822>
VStem: 78 76<66 344 412 642> 462 78<452.372 600.623> 492 80<120.848 283.94>
LayerCount: 2
Fore
SplineSet
154 642 m 1xf8
 154 640 154 412 154 412 c 1
 331 412 l 2
 413 412 462 442 462 530 c 0
 462 616 401 642 325 642 c 2
 154 642 l 1xf8
154 344 m 1
 154 344 154 68 154 66 c 1
 348 66 l 2
 430 66 492 108 492 202 c 0xf4
 492 300 427 344 325 344 c 2
 154 344 l 1
348 0 m 2
 78 0 l 1
 78 2 78 706 78 708 c 1
 327 708 l 2
 452 708 540 646 540 534 c 0xf8
 540 443 484 399 436 378 c 1
 516 358 572 291 572 197 c 0
 572 56 465 0 348 0 c 2
EndSplineSet
Validated: 1
EndChar

StartChar: C
Encoding: 67 67 2
Width: 606
VWidth: 1048
Flags: W
HStem: -7 66<256.482 457.063> 650 66<263.416 457.774>
VStem: 54 78<207.377 496.332>
LayerCount: 2
Fore
SplineSet
54 352 m 0
 54 585 183 716 358 716 c 0
 462 716 531 670 576 600 c 5
 533 557 l 5
 494 612 452 650 359 650 c 0
 225 650 132 546 132 352 c 0
 132 163 217 59 351 59 c 0
 451 59 498 101 534 147 c 5
 572 97 l 5
 571 96 l 6
 524 38 443 -7 350 -7 c 0
 175 -7 54 124 54 352 c 0
EndSplineSet
Validated: 1
EndChar

StartChar: D
Encoding: 68 68 3
Width: 620
VWidth: 1048
Flags: W
HStem: 0 66<150 379.208> 642 66<150 381.725>
VStem: 150 4<0 66 642 708> 506 76<209.582 502.255>
LayerCount: 2
Fore
SplineSet
150 642 m 5
 150 708 l 5
 273 708 l 2
 489 708 582 565 582 361 c 0
 582 139 488 0 269 0 c 2
 150 0 l 5
 150 66 l 5
 271 66 l 2
 410 66 506 141 506 361 c 0
 506 563 409 642 273 642 c 2
 150 642 l 5
78 0 m 5
 78 708 l 5
 154 708 l 5
 154 0 l 5
 78 0 l 5
EndSplineSet
Validated: 5
EndChar

StartChar: E
Encoding: 69 69 4
Width: 546
VWidth: 1048
Flags: W
HStem: 0 66<150 508> 332 70<148 430> 642 66<150 508>
VStem: 150 4<0 66 332 402 642 708>
AnchorPoint: "AccentCenter" 300 880 basechar 0
LayerCount: 2
Fore
SplineSet
148 332 m 5
 148 402 l 5
 430 402 l 5
 430 332 l 5
 148 332 l 5
150 0 m 5
 150 66 l 5
 508 66 l 5
 508 0 l 5
 150 0 l 5
150 642 m 5
 150 708 l 5
 508 708 l 5
 508 642 l 5
 150 642 l 5
78 0 m 5
 78 708 l 5
 154 708 l 5
 154 0 l 5
 78 0 l 5
EndSplineSet
EndChar

StartChar: F
Encoding: 70 70 5
Width: 556
VWidth: 1048
Flags: W
HStem: 0 21G<78 156> 336 70<150 440> 642 66<150 518>
VStem: 78 78<0 336 406 642> 150 6<336 406 642 708>
LayerCount: 2
Fore
SplineSet
150 336 m 1xe8
 150 406 l 1
 440 406 l 1
 440 336 l 1
 150 336 l 1xe8
150 642 m 1
 150 708 l 1
 518 708 l 1
 518 642 l 1
 150 642 l 1
78 0 m 1xf0
 78 708 l 1xf0
 156 708 l 1xe8
 156 0 l 1
 78 0 l 1xf0
EndSplineSet
Validated: 5
Colour: ff0000
EndChar

StartChar: G
Encoding: 71 71 6
Width: 634
VWidth: 1048
Flags: W
HStem: -7 66<246.081 428.159> 326 66<324 516> 650 66<247.371 450.684>
VStem: 54 78<200.262 509.101> 516 80<0 326>
LayerCount: 2
Fore
SplineSet
343 650 m 0
 207 650 132 547 132 355 c 0
 132 161 205 59 339 59 c 0
 425 59 496 110 524 209 c 6
 526 219 l 5
 543 149 l 5
 530 76 450 -7 338 -7 c 0
 163 -7 54 122 54 355 c 0
 54 588 176 716 342 716 c 0
 438 716 539 683 592 565 c 1
 534 534 l 1
 490 625 431 650 343 650 c 0
516 0 m 5
 516 326 l 5
 324 326 l 1
 324 392 l 1
 596 392 l 5
 596 0 l 5
 516 0 l 5
EndSplineSet
Validated: 5
EndChar

StartChar: H
Encoding: 72 72 7
Width: 611
VWidth: 1048
Flags: W
HStem: 0 21G<78 154 456 534> 344 70<150 462> 688 20G<78 154 456 534>
VStem: 78 76<0 344 414 708> 150 4<344 414> 456 78<0 344 414 708> 456 6<344 414>
LayerCount: 2
Fore
SplineSet
150 344 m 5xea
 150 414 l 5
 462 414 l 5
 462 344 l 5
 150 344 l 5xea
456 0 m 5xe4
 456 708 l 5
 534 708 l 5
 534 0 l 5
 456 0 l 5xe4
78 0 m 5xf0
 78 708 l 5
 154 708 l 5
 154 0 l 5
 78 0 l 5xf0
EndSplineSet
Validated: 5
EndChar

StartChar: I
Encoding: 73 73 8
Width: 232
VWidth: 1048
Flags: W
HStem: 0 21G<78 154> 688 20G<78 154>
VStem: 78 76<0 708>
AnchorPoint: "AccentCenter" 121 880 basechar 0
LayerCount: 2
Fore
SplineSet
78 0 m 1
 78 708 l 1
 154 708 l 1
 154 0 l 1
 78 0 l 1
EndSplineSet
EndChar

StartChar: J
Encoding: 74 74 9
Width: 479
VWidth: 1048
Flags: W
HStem: -7 65<127.999 278.367> 688 20G<324 402>
VStem: 324 78<110.282 708>
LayerCount: 2
Fore
SplineSet
324 708 m 1
 402 708 l 1
 402 211 l 2
 402 65 309 -7 202 -7 c 0
 87 -7 43 62 21 109 c 5
 83 141 l 5
 84 138 l 6
 110 74 161 58 203 58 c 0
 282 58 324 105 324 208 c 2
 324 708 l 1
EndSplineSet
Validated: 1
EndChar

StartChar: K
Encoding: 75 75 10
Width: 581
VWidth: 1048
Flags: W
HStem: -0 21G<86 162 435.288 555> 322 75<141 195> 688 20G<86 162 433.579 554>
VStem: 86 76<0 322 397 708> 141 21<322 359 365 397>
LayerCount: 2
Fore
SplineSet
141 397 m 5xe8
 195 397 l 5
 195 322 l 1
 141 322 l 1
 141 397 l 5xe8
555 -0 m 1
 452 -0 l 1
 147 365 l 1
 193 407 l 1
 555 -0 l 1
147 359 m 1
 451 708 l 1
 554 708 l 1
 193 313 l 1
 147 359 l 1
86 0 m 1xf0
 86 708 l 1
 162 708 l 1
 162 0 l 1
 86 0 l 1xf0
EndSplineSet
Validated: 5
Colour: ff0000
EndChar

StartChar: L
Encoding: 76 76 11
Width: 518
VWidth: 1048
Flags: W
HStem: 0 66<150 480> 688 20G<78 154>
VStem: 78 76<66 708> 150 4<0 66>
LayerCount: 2
Fore
SplineSet
150 0 m 5xd0
 150 66 l 5
 480 66 l 5
 480 0 l 5
 150 0 l 5xd0
78 0 m 5xe0
 78 708 l 5
 154 708 l 5xe0
 154 0 l 5xd0
 78 0 l 5xe0
EndSplineSet
Validated: 5
EndChar

StartChar: M
Encoding: 77 77 12
Width: 741
VWidth: 1048
Flags: W
HStem: 0 21G<86 162 578 656> 688 20G<86 182.885 558.418 656>
VStem: 86 76<0 576> 152 10<576 708> 578 78<0 576> 578 12<576 708>
LayerCount: 2
Fore
SplineSet
567 708 m 5xc4
 590 708 l 5
 590 576 l 5
 420 179 l 5
 340 179 l 5
 567 708 l 5xc4
152 576 m 5xd0
 152 708 l 5
 174 708 l 5
 409 179 l 5
 330 179 l 5
 152 576 l 5xd0
578 0 m 5xc8
 578 708 l 5xc4
 656 708 l 5
 656 0 l 5
 578 0 l 5xc8
86 0 m 5xe0
 86 708 l 5xe0
 162 708 l 5xd0
 162 0 l 5
 86 0 l 5xe0
EndSplineSet
Validated: 5
EndChar

StartChar: N
Encoding: 78 78 13
Width: 667
VWidth: 1048
Flags: W
HStem: 0 21G<86 162 484.428 582> 688 20G<86 182.703 504 582>
VStem: 86 76<0 598> 150 12<598 708> 504 78<115 708> 504 14<0 115>
LayerCount: 2
Fore
SplineSet
150 598 m 5xd4
 150 708 l 5
 171 708 l 5
 518 115 l 5
 518 0 l 5
 497 0 l 5
 496 0 l 5
 150 598 l 5xd4
504 0 m 5
 504 708 l 5
 582 708 l 5
 582 0 l 5xc8
 504 0 l 5
86 0 m 5xe0
 86 708 l 5xe0
 162 708 l 5xd0
 162 0 l 5
 86 0 l 5xe0
EndSplineSet
Validated: 5
EndChar

StartChar: O
Encoding: 79 79 14
Width: 662
VWidth: 1048
Flags: W
HStem: -8 66<239.736 426.724> 649 67<236.986 426.679>
VStem: 54 76<196.311 513.849> 530 78<188.481 517.342>
AnchorPoint: "AccentCenter" 334 881 basechar 0
LayerCount: 2
Fore
SplineSet
334 649 m 0
 212 649 130 570 130 354 c 0
 130 138 212 58 334 58 c 0
 456 58 530 138 530 354 c 0
 530 570 456 649 334 649 c 0
334 -8 m 0
 180 -8 54 94 54 354 c 0
 54 625 193 716 334 716 c 0
 475 716 608 623 608 357 c 0
 608 90 486 -8 334 -8 c 0
EndSplineSet
Validated: 1048577
EndChar

StartChar: P
Encoding: 80 80 15
Width: 605
VWidth: 1048
Flags: W
HStem: 0 21G<86 158> 260 66<152 390.727> 642 66<152 402.158>
VStem: 86 72<0 260 326 642> 152 6<260 326 642 708> 474 78<405.683 569.1>
LayerCount: 2
Fore
SplineSet
152 642 m 5xec
 152 708 l 5
 327 708 l 2
 459 708 552 609 552 490 c 0
 552 362 453 260 309 260 c 2
 152 260 l 5
 152 326 l 5
 309 326 l 2
 411 326 474 402 474 490 c 0
 474 574 410 642 327 642 c 2
 152 642 l 5xec
86 0 m 5xf4
 86 708 l 5xf4
 158 708 l 5xec
 158 0 l 5
 86 0 l 5xf4
EndSplineSet
Validated: 5
Colour: ff0000
EndChar

StartChar: Q
Encoding: 81 81 16
Width: 662
VWidth: 1048
Flags: W
HStem: -184 65<416.38 556> -163 44<477.334 556> -8 13<298 367> 648 67<237.149 423.847>
VStem: 50 78<190.396 516.349> 528 78<186.912 516.611>
AnchorPoint: "AccentCenter" 359 880 basechar 0
LayerCount: 2
Fore
SplineSet
331 648 m 0x3c
 209 648 128 569 128 352 c 0
 128 135 209 53 331 53 c 0
 453 53 528 135 528 352 c 0
 528 569 453 648 331 648 c 0x3c
331 -8 m 0
 177 -8 50 94 50 354 c 0
 50 625 190 715 331 715 c 0
 472 715 606 623 606 357 c 0
 606 90 483 -8 331 -8 c 0
367 3 m 2
 367 3 375 -119 483 -119 c 2
 556 -119 l 5xbc
 580 -163 l 5x7c
 562 -173 525 -184 475 -184 c 0xbc
 358 -184 298 -79 298 2 c 2
 298 5 l 1
 367 5 l 1
 367 3 l 2
EndSplineSet
Validated: 1048581
EndChar

StartChar: R
Encoding: 82 82 17
Width: 607
VWidth: 1048
Flags: W
HStem: -0 21G<86 162 472.99 571> 288 66<158 405.812> 642 66<158 411.867>
VStem: 86 76<0 288 354 642> 158 4<288 354 642 708> 474 78<417.994 583.801>
LayerCount: 2
Fore
SplineSet
86 0 m 1xf4
 86 708 l 1xf4
 162 708 l 1xec
 162 0 l 1
 86 0 l 1xf4
158 642 m 1xec
 158 708 l 1
 327 708 l 2
 470 708 552 621 552 502 c 0
 552 374 463 288 308 288 c 2
 158 288 l 1
 158 354 l 1
 308 354 l 2
 423 354 474 414 474 502 c 0
 474 586 423 642 327 642 c 2
 158 642 l 1xec
571 -0 m 5
 484 -0 l 5
 315 307 l 5
 390 310 l 5
 571 -0 l 5
EndSplineSet
Validated: 5
Colour: ff0000
EndChar

StartChar: S
Encoding: 83 83 18
Width: 594
VWidth: 1048
Flags: W
HStem: -7 64<183.559 402.111> 651 65<205.146 404.621>
VStem: 68 78<452.7 598.747> 462 76<110.476 256.985>
LayerCount: 2
Fore
SplineSet
101 154 m 1
 137 99 185 57 299 57 c 0
 417 57 462 112 462 184 c 0
 462 270 403 300 309 319 c 2
 263 329 l 1
 133 352 68 424 68 529 c 0
 68 635 160 716 313 716 c 0
 377 716 466 696 530 602 c 5
 475 563 l 5
 453 597 410 651 308 651 c 0
 199 651 146 600 146 529 c 0
 146 450 184 416 291 394 c 1
 341 383 l 2
 469 356 538 292 538 184 c 0
 538 72 445 -7 295 -7 c 0
 160 -7 102 37 47 108 c 1
 101 154 l 1
EndSplineSet
Validated: 1
EndChar

StartChar: T
Encoding: 84 84 19
Width: 611
VWidth: 1048
Flags: W
HStem: 0 21G<266 344> 641 67<46 266 344 566> 641 5<266 344>
VStem: 266 78<0 646>
LayerCount: 2
Fore
SplineSet
46 641 m 5xd0
 46 708 l 5
 566 708 l 5
 566 641 l 5
 46 641 l 5xd0
266 0 m 5
 266 646 l 5
 344 646 l 5xb0
 344 0 l 5
 266 0 l 5
EndSplineSet
Validated: 5
Colour: ff0000
EndChar

StartChar: U
Encoding: 85 85 20
Width: 635
VWidth: 1048
Flags: W
HStem: -8 66<226.132 408.757> 688 20G<78 154 480 558>
VStem: 78 76<138.112 708> 480 78<138.112 708>
AnchorPoint: "AccentCenter" 311 880 basechar 0
LayerCount: 2
Fore
SplineSet
78 265 m 6
 78 708 l 5
 154 708 l 5
 154 265 l 6
 154 97 227 58 320 58 c 0
 407 58 480 97 480 265 c 6
 480 708 l 5
 558 708 l 5
 558 263 l 6
 558 63 446 -8 316 -8 c 0
 190 -8 78 63 78 265 c 6
EndSplineSet
Validated: 1048577
EndChar

StartChar: V
Encoding: 86 86 21
Width: 655
VWidth: 1048
Flags: W
HStem: -0 21G<271.249 382.78> 688 20G<39 131.412 523.531 616>
LayerCount: 2
Fore
SplineSet
530 708 m 5
 616 708 l 5
 376 -0 l 5
 301 -0 l 5
 530 708 l 5
278 0 m 5
 39 708 l 5
 125 708 l 5
 352 0 l 5
 278 0 l 5
EndSplineSet
Validated: 5
Colour: ff0000
EndChar

StartChar: W
Encoding: 87 87 22
Width: 812
VWidth: 1048
Flags: W
HStem: -0 21G<188.361 287.52 528.593 623.633> 688 20G<29 112.3 365.48 454.294 699.706 783>
VStem: 29 79<676.099 707> 704 79<677.055 708>
LayerCount: 2
Fore
SplineSet
602 0 m 5
 533 0 l 5
 377 708 l 5
 450 708 l 5
 602 0 l 5
619 -0 m 5
 552 -0 l 5
 704 708 l 5
 783 708 l 5
 619 -0 l 5
210 -0 m 5
 370 708 l 5
 443 708 l 5
 283 -0 l 5
 210 -0 l 5
193 -0 m 5
 29 707 l 5
 108 707 l 5
 260 -0 l 5
 193 -0 l 5
EndSplineSet
Validated: 5
Colour: ff0000
EndChar

StartChar: X
Encoding: 88 88 23
Width: 660
VWidth: 1048
Flags: W
HStem: 0 21G<51 155.55 503.517 609> 688 20G<51 155.593 503.475 609>
LayerCount: 2
Fore
SplineSet
282 354 m 5
 51 708 l 5
 143 708 l 5
 330 411 l 5
 516 708 l 5
 609 708 l 5
 378 354 l 5
 609 0 l 5
 516 0 l 5
 330 298 l 5
 143 -0 l 5
 51 -0 l 5
 282 354 l 5
EndSplineSet
Validated: 1
EndChar

StartChar: Y
Encoding: 89 89 24
Width: 595
VWidth: 1048
Flags: W
HStem: 0 21G<260 338> 688 20G<20 123.16 472.023 575>
VStem: 260 78<0 280>
AnchorPoint: "AccentCenter" 296 880 basechar 0
LayerCount: 2
Fore
SplineSet
260 0 m 5
 260 280 l 5
 338 280 l 5
 338 0 l 5
 260 0 l 5
264 271 m 5
 482 708 l 5
 575 708 l 5
 332 258 l 5
 264 271 l 5
267 258 m 5
 20 708 l 5
 113 708 l 5
 335 271 l 5
 267 258 l 5
EndSplineSet
Validated: 1048581
Colour: ff0000
EndChar

StartChar: Z
Encoding: 90 90 25
Width: 603
VWidth: 1048
Flags: W
HStem: 0 66<147 542> 642 66<62 537>
LayerCount: 2
Fore
SplineSet
62 66 m 5
 456 652 l 5
 537 642 l 5
 147 61 l 5
 62 66 l 5
62 0 m 5
 62 66 l 5
 542 66 l 5
 542 0 l 5
 62 0 l 5
62 642 m 5
 62 708 l 5
 537 708 l 5
 537 642 l 5
 62 642 l 5
EndSplineSet
Validated: 5
EndChar

StartChar: bracketleft
Encoding: 91 91 26
Width: 394
VWidth: 1048
Flags: W
HStem: -66 67<108 296> 752 67<108 296>
VStem: 74 222<-66 1 752 819> 108 46<-66 1 752 819>
LayerCount: 2
Fore
SplineSet
296 752 m 5xe0
 108 752 l 5
 108 819 l 5xd0
 296 819 l 5
 296 752 l 5xe0
296 -66 m 5xe0
 108 -66 l 5
 108 1 l 5xd0
 296 1 l 5
 296 -66 l 5xe0
74 -66 m 5xe0
 74 819 l 5xe0
 154 819 l 5
 154 -66 l 5xd0
 74 -66 l 5xe0
EndSplineSet
EndChar

StartChar: backslash
Encoding: 92 92 27
Width: 420
VWidth: 1048
Flags: W
HStem: 748 20G<-3 81>
VStem: -3 84<714.769 768> 340 84<-35 18.2309>
LayerCount: 2
Fore
SplineSet
424 -35 m 1
 340 -35 l 1
 340 -33 -3 766 -3 768 c 1
 81 768 l 1
 81 766 424 -33 424 -35 c 1
EndSplineSet
Validated: 1
EndChar

StartChar: bracketright
Encoding: 93 93 28
Width: 394
VWidth: 1048
Flags: W
HStem: -66 67<74 264> 752 67<74 264>
VStem: 74 222<-66 1 752 819> 218 46<-66 1 752 819>
LayerCount: 2
Fore
SplineSet
264 819 m 5xd0
 264 752 l 5xd0
 74 752 l 5
 74 819 l 5xe0
 264 819 l 5xd0
264 1 m 5
 264 -66 l 5xd0
 74 -66 l 5
 74 1 l 5xe0
 264 1 l 5
218 819 m 5
 296 819 l 5
 296 -66 l 5xe0
 218 -66 l 5
 218 819 l 5
EndSplineSet
EndChar

StartChar: asciicircum
Encoding: 94 94 29
Width: 505
VWidth: 1048
Flags: W
HStem: 666 186
VStem: 207 67<830.203 852>
LayerCount: 2
Fore
SplineSet
74 717 m 1
 74 718 207 850 207 852 c 1
 274 852 l 1
 274 850 407 718 407 717 c 1
 407 718 364 668 364 666 c 1
 364 668 241 787 241 785 c 1
 241 787 118 668 118 666 c 1
 118 668 74 718 74 717 c 1
EndSplineSet
Validated: 37
EndChar

StartChar: underscore
Encoding: 95 95 30
Width: 579
VWidth: 1048
Flags: W
HStem: -70 70<92 498>
LayerCount: 2
Fore
SplineSet
92 -70 m 5
 92 0 l 1
 498 0 l 1
 498 -70 l 5
 92 -70 l 5
EndSplineSet
EndChar

StartChar: grave
Encoding: 96 96 31
Width: 284
VWidth: 1048
Flags: W
HStem: 528 241
VStem: 27 226
LayerCount: 2
Fore
SplineSet
187 528 m 1
 187 530 27 767 27 769 c 1
 126 769 l 1
 126 767 253 529 253 527 c 1
 253 529 187 530 187 528 c 1
EndSplineSet
Validated: 33
EndChar

StartChar: a
Encoding: 97 97 32
Width: 531
Flags: W
HStem: -8 65<162.127 322.606> 0 21G<395.883 462> 248 66<161.5 384> 461 66<173.293 343.054>
VStem: 56 78<83.6025 222.382> 384 78<108.994 248 314 421.531> 399 63<0 45.9947>
AnchorPoint: "AccentCenter" 262 687 basechar 0
AnchorPoint: "Ring" 266 687 basechar 0
LayerCount: 2
Fore
SplineSet
270 248 m 2xbc
 162 248 134 225 134 148 c 0
 134 87 168 57 242 57 c 0
 302 57 356 88 384 140 c 1
 384 248 l 1
 270 248 l 2xbc
256 314 m 2
 384 314 l 1
 384 345 l 2
 384 426 336 461 260 461 c 0
 188 461 154 429 130 398 c 5
 83 437 l 5
 84 439 l 6
 118 494 182 527 262 527 c 0
 372 527 462 473 462 331 c 2xbc
 462 0 l 1
 399 0 l 1x7a
 387 77 l 1
 363 29 302 -8 238 -8 c 0
 126 -8 56 52 56 148 c 0
 56 254 115 314 256 314 c 2
EndSplineSet
Validated: 1
EndChar

StartChar: b
Encoding: 98 98 33
Width: 588
VWidth: 1048
Flags: W
HStem: -7 66<217.369 380.376> 463 65<211.343 376.735>
VStem: 70 78<52.6301 91 133 363 437 724> 70 61<0 38.3699> 456 78<143.73 376.53>
LayerCount: 2
Fore
SplineSet
134 437 m 5xe8
 152 483 208 528 301 528 c 0
 429 528 534 440 534 269 c 0
 534 79 426 -7 301 -7 c 0
 187 -7 132 74 116 133 c 5
 125 218 l 5
 128 203 l 6
 146 127 210 59 297 59 c 0
 396 59 456 123 456 266 c 0
 456 396 389 463 297 463 c 0
 221 463 166 421 148 363 c 6
 145 352 l 5
 134 437 l 5xe8
70 0 m 5xd8
 70 724 l 5
 148 724 l 5
 148 91 l 5xe8
 131 0 l 5
 70 0 l 5xd8
EndSplineSet
Validated: 5
EndChar

StartChar: c
Encoding: 99 99 34
Width: 506
VWidth: 1048
Flags: W
HStem: -7 65<203.212 370.559> 463 65<202.478 373.549>
VStem: 54 76<141.16 378.489>
AnchorPoint: "AccentCenter" 266 686 basechar 0
LayerCount: 2
Fore
SplineSet
428 383 m 5
 390 441 352 463 280 463 c 0
 190 463 130 393 130 258 c 0
 130 123 192 58 282 58 c 0
 361 58 395 91 431 146 c 5
 485 105 l 5
 431 32 385 -7 282 -7 c 0
 154 -7 54 95 54 261 c 0
 54 427 143 528 280 528 c 0
 383 528 437 489 482 419 c 5
 428 383 l 5
EndSplineSet
Validated: 1048577
EndChar

StartChar: d
Encoding: 100 100 35
Width: 601
VWidth: 1048
Flags: W
HStem: -7 66<205.186 368.056> 463 65<208.804 373.657>
VStem: 54 78<140.284 376.752> 436 80<54.7618 91 133 363 437 724> 454 62<0 36.2382>
LayerCount: 2
Fore
SplineSet
437 363 m 6xe0
 419 421 364 463 288 463 c 4
 196 463 132 397 132 266 c 4
 132 122 189 59 288 59 c 4
 375 59 439 127 457 203 c 6
 460 218 l 5
 469 133 l 5
 468 133 l 6
 453 77 400 -7 284 -7 c 4
 159 -7 54 79 54 269 c 4
 54 440 156 528 284 528 c 4
 377 528 433 483 451 437 c 5
 440 352 l 5
 437 363 l 6xe0
436 724 m 5xf0
 516 724 l 5xf0
 516 0 l 5
 454 -0 l 5xe8
 436 91 l 5
 436 724 l 5xf0
EndSplineSet
Validated: 5
EndChar

StartChar: e
Encoding: 101 101 36
Width: 545
VWidth: 1048
Flags: W
HStem: -8 65<206.107 384.326> 236 66<132 418> 462 65<201.159 363.28>
VStem: 54 78<138.521 236 302 387.862> 418 74<302.68 404.662>
AnchorPoint: "AccentCenter" 285 686 basechar 0
LayerCount: 2
Fore
SplineSet
132 302 m 1
 418 302 l 1
 418 318 l 2
 418 413 364 462 287 462 c 0
 183 462 133 390 132 302 c 1
54 261 m 0
 54 421 141 527 288 527 c 0
 398 527 492 446 492 306 c 0
 492 270 487 253 477 236 c 1
 132 236 l 1
 133 134 186 57 287 57 c 0
 373 57 413 93 440 130 c 5
 489 86 l 5
 435 28 384 -8 285 -8 c 0
 144 -8 54 99 54 261 c 0
EndSplineSet
Validated: 1048577
EndChar

StartChar: f
Encoding: 102 102 37
Width: 420
VWidth: 1048
Flags: W
HStem: 0 21G<154 232> 454 66<54 368> 669 63<247.25 370>
VStem: 154 78<0 654.816>
LayerCount: 2
Fore
SplineSet
370 669 m 5
 300 669 l 2
 257 669 232 649 232 598 c 2
 232 0 l 1
 154 0 l 1
 154 584 l 2
 154 681 213 732 300 732 c 0
 329 732 352 730 377 725 c 5
 370 669 l 5
54 454 m 1
 54 520 l 1
 368 520 l 1
 368 454 l 1
 54 454 l 1
EndSplineSet
Validated: 5
EndChar

StartChar: g
Encoding: 103 103 38
Width: 554
VWidth: 1048
Flags: W
HStem: -192 62<148.297 381.551> 12 67<176 198 201 423.975> 455 65<322 512> 463 65<165.095 301.837>
VStem: 42 80<-104.503 -10.9821> 50 72<88.6085 158.829 290.941 418.503> 356 78<282.589 426.477> 438 78<-88.3494 -1.89927>
LayerCount: 2
Fore
SplineSet
258 187 m 1xc7
 193 182 122 170 122 119 c 0
 122 91 156 79 198 79 c 6
 201 79 l 5
 195 22 l 5
 193 22 l 6
 99 22 50 63 50 118 c 0
 50 182 116 219 235 232 c 1
 258 187 l 1xc7
122 -64 m 0xcb
 122 -111 177 -130 256 -130 c 0
 352 -130 438 -99 438 -48 c 0
 438 3 400 12 354 12 c 2
 176 12 l 1
 150 0 122 -27 122 -64 c 0xcb
197 79 m 5
 345 79 l 2
 442 79 516 44 516 -44 c 0
 516 -138 389 -192 254 -192 c 0
 129 -192 42 -144 42 -66 c 0
 42 9 127 47 191 64 c 5
 197 79 l 5
244 463 m 0xd3
 164 463 128 421 128 357 c 0
 128 283 164 248 244 248 c 0
 317 248 356 283 356 357 c 0
 356 421 317 463 244 463 c 0xd3
238 186 m 0
 115 186 50 262 50 361 c 0xd7
 50 463 126 528 240 528 c 0
 357 528 434 463 434 361 c 0
 434 251 355 186 238 186 c 0
512 520 m 1xe3
 512 455 l 1
 322 455 l 1
 298 520 l 1
 512 520 l 1xe3
EndSplineSet
Validated: 5
Colour: ff0000
EndChar

StartChar: h
Encoding: 104 104 39
Width: 546
VWidth: 1048
Flags: W
HStem: 0 21G<62 140 406 484> 462 66<201.344 354.038> 687 20G<62 140>
VStem: 62 78<0 353 411 707> 406 78<0 407.204>
AnchorPoint: "AccentCenter" 266 686 basechar 0
LayerCount: 2
Fore
SplineSet
117 411 m 2
 134 467 192 528 285 528 c 0
 417 528 484 434 484 325 c 6
 484 0 l 5
 406 0 l 5
 406 323 l 6
 406 411 358 462 276 462 c 0
 210 462 164 422 139 353 c 2
 137 346 l 1
 116 410 l 1
 117 411 l 2
62 0 m 1
 62 707 l 1
 140 707 l 1
 140 0 l 1
 62 0 l 1
EndSplineSet
Validated: 1048581
EndChar

StartChar: i
Encoding: 105 105 40
Width: 292
VWidth: 1048
Flags: W
HStem: 0 21G<132 212> 454 65<30 132> 629 110<129.037 216.963>
VStem: 118 110<640.037 727.963> 132 80<0 454>
LayerCount: 2
Fore
SplineSet
173 629 m 0xf0
 143 629 118 654 118 684 c 0
 118 714 143 739 173 739 c 0
 203 739 228 714 228 684 c 0
 228 654 203 629 173 629 c 0xf0
132 0 m 5xe8
 132 454 l 5
 30 454 l 5
 30 519 l 5
 212 519 l 5
 212 0 l 5
 132 0 l 5xe8
EndSplineSet
Validated: 1
EndChar

StartChar: j
Encoding: 106 106 41
Width: 271
VWidth: 1048
Flags: W
HStem: -191 65<0 79.7743> 499 20G<98 176> 629 110<94.676 182.602>
VStem: 84 110<640.847 727.153> 98 78<-108.881 519>
LayerCount: 2
Fore
SplineSet
138 629 m 0xf0
 108 629 84 654 84 684 c 0
 84 714 108 739 138 739 c 0
 168 739 194 714 194 684 c 0
 194 654 168 629 138 629 c 0xf0
0 -126 m 5
 12 -126 l 2
 83 -126 98 -101 98 -18 c 2
 98 519 l 1
 176 519 l 1
 176 -18 l 2xe8
 176 -133 131 -191 12 -191 c 2
 0 -191 l 5
 0 -126 l 5
EndSplineSet
Validated: 1
Colour: ff0000
EndChar

StartChar: k
Encoding: 107 107 42
Width: 511
VWidth: 1048
Flags: W
HStem: -0 21G<78 156 371.786 497> 270 10<135 231> 499 20G<359.402 494>
VStem: 78 78<0 270 280 724>
LayerCount: 2
Fore
SplineSet
497 -0 m 5
 390 -0 l 5
 135 280 l 5
 231 280 l 5
 497 -0 l 5
135 270 m 5
 379 519 l 5
 494 519 l 5
 231 270 l 5
 135 270 l 5
78 0 m 5
 78 724 l 5
 156 724 l 5
 156 0 l 5
 78 0 l 5
EndSplineSet
Validated: 5
Colour: ff0000
EndChar

StartChar: l
Encoding: 108 108 43
Width: 261
VWidth: 1048
Flags: W
HStem: -7 63<158.42 237> 748 20G<78 156>
VStem: 78 78<57.7001 768>
LayerCount: 2
Fore
SplineSet
247 0 m 1
 241 -2 217 -7 169 -7 c 0
 111 -7 78 25 78 87 c 6
 78 768 l 5
 156 768 l 5
 156 91 l 6
 156 65 165 56 190 56 c 0
 237 56 l 1
 247 0 l 1
EndSplineSet
Validated: 1
EndChar

StartChar: m
Encoding: 109 109 44
Width: 823
VWidth: 1048
Flags: W
HStem: 0 21G<78 156 374 452 676 754> 461 66<205.001 342.368 500.834 640.084> 499 20G<78 142.778>
VStem: 78 78<0 376 429 466.948> 78 61<481.052 519> 374 78<0 401.834> 676 78<0 424.484>
LayerCount: 2
Fore
SplineSet
427 418 m 2xc6
 441 464 493 527 594 527 c 0
 688 527 754 458 754 353 c 2
 754 0 l 1
 676 0 l 1
 676 352 l 2
 676 427 629 461 575 461 c 0
 512 461 462 424 442 372 c 2
 439 364 l 1
 426 418 l 1
 427 418 l 2xc6
140 432 m 1
 153 470 200 527 299 527 c 0
 370 527 419 486 440 431 c 5
 452 431 l 5
 452 0 l 5
 374 0 l 1
 374 368 l 2
 374 424 334 461 280 461 c 0
 216 461 167 422 155 376 c 2
 153 365 l 1
 140 432 l 1
78 0 m 1xb6
 78 519 l 1
 139 519 l 1xae
 156 429 l 1
 156 0 l 1
 78 0 l 1xb6
EndSplineSet
Validated: 5
EndChar

StartChar: n
Encoding: 110 110 45
Width: 534
VWidth: 1048
Flags: W
HStem: 0 21G<62 140 394 472> 461 66<191.004 342.258> 499 20G<62 127.789>
VStem: 62 78<0 411 448 477.937> 62 61<489.063 519> 122 4<304 379> 394 78<0 407.03>
AnchorPoint: "AccentCenter" 254 686 basechar 0
LayerCount: 2
Fore
SplineSet
62 0 m 5xb2
 62 519 l 5
 123 519 l 5xaa
 140 448 l 5
 140 0 l 5
 62 0 l 5xb2
116 411 m 5
 129 466 187 527 279 527 c 0
 411 527 472 434 472 325 c 6
 472 0 l 5
 394 0 l 5
 394 323 l 6
 394 411 346 461 264 461 c 0
 166 461 126 379 126 304 c 5
 122 304 l 5xc6
 116 411 l 5
EndSplineSet
Validated: 1048581
EndChar

StartChar: o
Encoding: 111 111 46
Width: 576
VWidth: 1048
Flags: W
HStem: -8 65<206.462 365.318> 462 65<207.4 365.125>
VStem: 54 76<142.747 373.147> 446 76<148.125 367.92>
AnchorPoint: "AccentCenter" 285 686 basechar 0
LayerCount: 2
Fore
SplineSet
286 462 m 0
 196 462 130 393 130 258 c 0
 130 123 196 57 286 57 c 0
 376 57 446 124 446 258 c 0
 446 392 376 462 286 462 c 0
286 -8 m 0
 158 -8 54 94 54 261 c 0
 54 427 149 527 286 527 c 0
 422 527 522 428 522 261 c 0
 522 94 423 -8 286 -8 c 0
EndSplineSet
Validated: 1048577
EndChar

StartChar: p
Encoding: 112 112 47
Width: 574
VWidth: 1048
Flags: W
HStem: -7 65<206.343 369.547> 462 66<211.944 379.048> 500 20G<64 129.956>
VStem: 64 80<-191 84 158 388 429 465.238> 64 62<483.762 520> 448 78<147.472 383.688>
LayerCount: 2
Fore
SplineSet
143 158 m 2xc4
 161 100 216 58 292 58 c 0
 384 58 448 132 448 263 c 0
 448 407 391 462 292 462 c 0
 205 462 141 394 123 318 c 2
 120 303 l 1
 111 388 l 1
 112 388 l 2
 127 444 180 528 296 528 c 0
 421 528 526 450 526 260 c 0
 526 89 424 -7 296 -7 c 0
 203 -7 147 38 129 84 c 1
 140 169 l 1
 143 158 l 2xc4
144 -191 m 1xb4
 64 -191 l 1xb4
 64 520 l 1
 126 520 l 1xac
 144 429 l 5
 144 -191 l 1xb4
EndSplineSet
Validated: 5
EndChar

StartChar: q
Encoding: 113 113 48
Width: 574
VWidth: 1048
Flags: W
HStem: -7 65<204.453 367.657> 462 66<194.952 362.056> 500 20G<444.044 510>
VStem: 48 78<147.472 383.688> 430 80<-191 84 158 388 429 465.238> 448 62<483.762 520>
LayerCount: 2
Fore
SplineSet
431 158 m 2xd0
 434 169 l 1
 445 84 l 1
 427 38 371 -7 278 -7 c 0
 150 -7 48 89 48 260 c 0
 48 450 153 528 278 528 c 0
 394 528 447 444 462 388 c 2
 463 388 l 1
 454 303 l 1
 451 318 l 2
 433 394 369 462 282 462 c 0
 183 462 126 407 126 263 c 0
 126 132 190 58 282 58 c 0
 358 58 413 100 431 158 c 2xd0
430 -191 m 1xb8
 430 429 l 5xb8
 448 520 l 1
 510 520 l 1xb4
 510 -191 l 1
 430 -191 l 1xb8
EndSplineSet
Validated: 5
EndChar

StartChar: r
Encoding: 114 114 49
Width: 361
VWidth: 1048
Flags: W
HStem: 0 21G<80 158> 458 70<198.958 332> 458 58<275.533 332> 500 20G<80 143.764>
VStem: 80 78<0 448.863> 80 61<468.137 520> 80 49<371 453.428> 127 5<318 422>
LayerCount: 2
Fore
SplineSet
129 371 m 1xc2
 139 460 176 528 274 528 c 0xc2
 307 528 321 524 347 516 c 5xa2
 332 458 l 5
 302 458 l 6
 199 458 157 422 132 337 c 2
 127 318 l 1xc1
 129 371 l 1xc2
80 0 m 1x98
 80 520 l 1
 141 520 l 1x94
 158 397 l 1
 158 0 l 1
 80 0 l 1x98
EndSplineSet
Validated: 5
Colour: ff0000
EndChar

StartChar: s
Encoding: 115 115 50
Width: 470
VWidth: 1048
Flags: W
HStem: -9 65<136.739 326.298> 462 65<152.472 317.398>
VStem: 44 78<334.118 432.318> 356 76<83.9212 193.798>
LayerCount: 2
Fore
SplineSet
91 121 m 5
 115 88 150 56 236 56 c 0
 320 56 356 87 356 141 c 0
 356 188 322 214 266 226 c 2
 266 227 171 246 171 246 c 1
 89 266 44 320 44 390 c 0
 44 467 120 527 236 527 c 0
 326 527 379 483 419 439 c 1
 366 397 l 1
 344 425 303 462 238 462 c 0
 169 462 122 431 122 389 c 0
 122 348 144 321 195 308 c 0
 293 287 l 1
 368 268 432 222 432 137 c 0
 432 40 352 -9 238 -9 c 0
 154 -9 86 17 39 79 c 5
 91 121 l 5
EndSplineSet
Validated: 1
EndChar

StartChar: t
Encoding: 116 116 51
Width: 420
VWidth: 1048
Flags: W
HStem: -7 63<242.413 356> 455 65<52 362>
VStem: 154 78<67.25 634>
LayerCount: 2
Fore
SplineSet
365 0 m 5
 333 -4 311 -7 284 -7 c 0
 195 -7 154 41 154 121 c 2
 154 634 l 1
 232 688 l 1
 232 123 l 2
 232 74 251 56 304 56 c 2
 356 56 l 5
 365 0 l 5
362 455 m 1
 52 455 l 1
 52 520 l 1
 362 520 l 1
 362 455 l 1
EndSplineSet
Validated: 5
EndChar

StartChar: u
Encoding: 117 117 52
Width: 542
VWidth: 1048
Flags: W
HStem: -8 66<184.91 338.5> 0 21G<406.145 472> 499 20G<62 140 394 472>
VStem: 62 78<103.955 519> 394 78<45.816 83 121 519> 402 5<147.621 214> 410 62<0 37.184>
AnchorPoint: "AccentCenter" 272 686 basechar 0
LayerCount: 2
Fore
SplineSet
472 519 m 5x78
 472 0 l 5
 410 0 l 5x72
 394 83 l 5
 394 519 l 5
 472 519 l 5x78
417 121 m 5
 389 49 348 -8 253 -8 c 0
 121 -8 62 86 62 195 c 6
 62 519 l 5
 140 519 l 5
 140 197 l 6
 140 109 178 58 259 58 c 0
 355 58 402 131 402 214 c 5
 407 215 l 5xb4
 417 121 l 5
EndSplineSet
Validated: 1048581
EndChar

StartChar: v
Encoding: 118 118 53
Width: 556
VWidth: 1048
Flags: W
HStem: -0 21G<228.293 333.476> 499 20G<36 129.168 427.064 520>
LayerCount: 2
Fore
SplineSet
434 519 m 5
 520 519 l 5
 326 -0 l 5
 254 -0 l 5
 434 519 l 5
236 -0 m 5
 36 519 l 5
 122 519 l 5
 308 -0 l 5
 236 -0 l 5
EndSplineSet
Validated: 5
Colour: ff0000
EndChar

StartChar: w
Encoding: 119 119 54
Width: 751
VWidth: 1048
Flags: W
HStem: 0 21G<152.376 264.395 480.913 592.855> 499 20G<37 121.162 324.605 427.087 628.53 714>
VStem: 37 80<487.998 519> 633 81<489.475 519>
LayerCount: 2
Fore
SplineSet
554 0 m 5
 486 0 l 5
 354 519 l 5
 422 519 l 5
 554 0 l 5
588 0 m 5
 517 0 l 5
 633 519 l 5
 714 519 l 5
 588 0 l 5
330 519 m 5
 399 519 l 5
 259 -0 l 5
 190 0 l 5
 330 519 l 5
157 -0 m 5
 37 519 l 5
 117 519 l 5
 225 -0 l 5
 157 -0 l 5
EndSplineSet
Validated: 5
Colour: ff0000
EndChar

StartChar: x
Encoding: 120 120 55
Width: 516
VWidth: 1048
Flags: W
HStem: 0 21G<25 134.555 392.54 502> 499 20G<25 134.75 392.346 502>
LayerCount: 2
Fore
SplineSet
216 260 m 5
 25 519 l 5
 121 519 l 5
 264 311 l 5
 406 519 l 5
 502 519 l 5
 312 260 l 5
 502 0 l 5
 406 0 l 5
 264 211 l 5
 121 0 l 5
 25 0 l 5
 216 260 l 5
EndSplineSet
Validated: 1
Colour: ff0000
EndChar

StartChar: y
Encoding: 121 121 56
Width: 555
VWidth: 1048
Flags: W
HStem: 499 20G<44 138.358 424.642 522>
AnchorPoint: "AccentCenter" 291 686 basechar 0
LayerCount: 2
Fore
SplineSet
290 133 m 5
 432 519 l 5
 522 519 l 5
 236 -192 l 5
 155 -192 l 5
 243 26 l 5
 44 519 l 5
 131 519 l 5
 273 133 l 5
 282 93 l 5
 290 133 l 5
EndSplineSet
Validated: 1048577
Colour: ff0000
EndChar

StartChar: z
Encoding: 122 122 57
Width: 518
VWidth: 1048
Flags: W
HStem: 0 65<145 460> 451 69<60 454>
LayerCount: 2
Fore
SplineSet
367 456 m 1
 454 451 l 5
 145 55 l 1
 58 65 l 1
 367 456 l 1
58 0 m 1
 58 65 l 1
 460 65 l 1
 460 0 l 1
 58 0 l 1
60 451 m 1
 60 520 l 1
 454 520 l 1
 454 451 l 1
 60 451 l 1
EndSplineSet
Validated: 5
EndChar

StartChar: braceleft
Encoding: 123 123 58
Width: 369
VWidth: 1048
Flags: W
HStem: -67 67<228.892 324> 344 66<46 93.625> 748 66<231.9 324>
VStem: 116 80<30.875 319.965 427.5 711.062>
LayerCount: 2
Fore
SplineSet
116 478 m 2
 116 631 l 2
 116 753 194 814 324 814 c 2
 324 748 l 1
 234 748 196 719 196 630 c 2
 196 512 l 2
 196 433 155 394 120 376 c 1
 153 362 196 328 196 248 c 2
 196 116 l 2
 196 17 234 0 324 0 c 2
 324 -67 l 1
 187 -67 116 -17 116 115 c 2
 116 273 l 2
 116 309 79 344 48 344 c 2
 46 344 l 1
 46 410 l 1
 48 410 l 2
 80 410 116 434 116 478 c 2
EndSplineSet
EndChar

StartChar: bar
Encoding: 124 124 59
Width: 235
VWidth: 1048
Flags: W
VStem: 74 80<-66 819>
LayerCount: 2
Fore
SplineSet
74 819 m 5
 154 819 l 5
 154 -66 l 5
 74 -66 l 5
 74 819 l 5
EndSplineSet
EndChar

StartChar: braceright
Encoding: 125 125 60
Width: 369
VWidth: 1048
Flags: W
HStem: -66 66<46 141.772> 344 66<274.875 324> 747 67<46 145.435>
VStem: 174 78<33.5625 325.52 433.938 719.5>
LayerCount: 2
Fore
SplineSet
252 275 m 6
 252 113 l 4
 252 -9 176 -66 46 -66 c 1
 46 0 l 1
 136 0 174 25 174 114 c 4
 174 241 l 6
 174 320 214 359 249 377 c 1
 216 392 174 433 174 513 c 0
 174 635 l 2
 174 734 136 747 46 747 c 1
 46 747 46 812 46 814 c 1
 183 814 252 768 252 636 c 0
 252 480 l 2
 252 444 290 410 321 410 c 2
 324 410 l 1
 324 344 l 1
 321 344 l 2
 289 344 252 319 252 275 c 6
EndSplineSet
EndChar

StartChar: asciitilde
Encoding: 126 126 61
Width: 669
VWidth: 1048
Flags: W
HStem: 225 71<378.35 484.978> 316 70<178.84 294.162>
LayerCount: 2
Fore
SplineSet
587 341 m 1
 587 341 539 225 431 225 c 0
 347 225 301 316 237 316 c 0
 175 316 139 250 129 223 c 1
 129 225 74 266 74 265 c 1
 81 286 127 386 249 386 c 0
 325 386 369 296 439 296 c 0
 494 296 522 380 524 385 c 1
 524 383 588 342 588 343 c 1
 588 342 587 340 587 341 c 1
EndSplineSet
Validated: 37
EndChar

StartChar: exclam
Encoding: 33 33 62
Width: 298
VWidth: 1048
Flags: W
HStem: -8 126<89.2435 184.756> 696 20G<89 189>
VStem: 74 126<6.23584 102.951> 89 100<452.99 716> 98 78<239 502.01>
LayerCount: 2
Fore
SplineSet
89 716 m 5xd0
 189 716 l 5xd0
 176 239 l 5
 98 239 l 5xc8
 89 716 l 5xd0
137 -8 m 0
 99 -8 74 20 74 54 c 0
 74 88 99 118 137 118 c 0
 175 118 200 88 200 54 c 0xe0
 200 20 175 -8 137 -8 c 0
EndSplineSet
EndChar

StartChar: quotedbl
Encoding: 34 34 63
Width: 427
VWidth: 1048
Flags: W
HStem: 515 254<70 130 297 357>
VStem: 61 78<566.703 769> 70 60<515 717.297> 288 78<566.703 769> 297 60<515 717.297>
LayerCount: 2
Fore
SplineSet
288 769 m 5x90
 366 769 l 5x90
 357 515 l 5
 297 515 l 5x88
 288 769 l 5x90
70 515 m 5xa0
 61 769 l 5
 139 769 l 5xc0
 130 515 l 5
 70 515 l 5xa0
EndSplineSet
EndChar

StartChar: numbersign
Encoding: 35 35 64
Width: 710
VWidth: 1048
Flags: W
HStem: -0 21G<90 178.663 308 396.663> 206 66<74 612> 456 66<74 612>
LayerCount: 2
Fore
SplineSet
295 724 m 5
 378 724 l 5
 173 -0 l 5
 90 -0 l 5
 295 724 l 5
513 724 m 5
 596 724 l 5
 391 0 l 5
 308 0 l 5
 513 724 l 5
74 206 m 5
 74 272 l 5
 612 272 l 5
 612 206 l 5
 74 206 l 5
74 456 m 5
 74 522 l 5
 612 522 l 5
 612 456 l 5
 74 456 l 5
EndSplineSet
EndChar

StartChar: dollar
Encoding: 36 36 65
Width: 610
VWidth: 1048
Flags: W
HStem: -7 64<210.537 418.094> 652 64<214.714 411.967>
VStem: 84 78<452.381 604.556> 276 78<-139 863> 478 76<110.712 256.832>
LayerCount: 2
Fore
SplineSet
276 -139 m 1
 276 863 l 1
 354 863 l 1
 354 -139 l 1
 276 -139 l 1
84 534 m 0
 84 641 179 716 313 716 c 4
 405 716 488 683 541 591 c 5
 485 554 l 5
 454 608 410 652 308 652 c 4
 199 652 162 596 162 535 c 0
 162 455 192 417 298 395 c 2
 369 380 l 2
 492 354 554 287 554 179 c 0
 554 66 453 -7 315 -7 c 0
 172 -7 103 52 61 138 c 1
 121 169 l 1
 122 167 l 2
 155 89 234 57 315 57 c 0
 423 57 478 106 478 178 c 0
 478 265 431 297 337 316 c 2
 270 330 l 1
 144 353 84 429 84 534 c 0
EndSplineSet
EndChar

StartChar: percent
Encoding: 37 37 66
Width: 784
VWidth: 1048
Flags: W
HStem: -8 71<506.39 607.417> 0 21G<134 232.667> 252 70<506.913 604.747> 384 72<160.39 261.417> 644 71<160.321 258.747>
VStem: 62 78<475.629 622.788> 282 78<477.702 621.973> 408 78<82.7256 231.913> 628 78<82.7256 229.02>
LayerCount: 2
Fore
SplineSet
628 155 m 0xbf80
 628 217 599 252 556 252 c 0
 513 252 486 219 486 155 c 0
 486 93 513 63 557 63 c 0
 600 63 628 93 628 155 c 0xbf80
408 157 m 0
 408 256 468 322 557 322 c 0
 646 322 706 256 706 157 c 0
 706 59 646 -8 557 -8 c 0
 468 -8 408 59 408 157 c 0
282 549 m 0
 282 611 253 644 210 644 c 0
 167 644 140 612 140 548 c 0
 140 486 167 456 211 456 c 0
 254 456 282 487 282 549 c 0
62 550 m 0
 62 649 122 715 211 715 c 0
 300 715 360 649 360 550 c 0
 360 452 300 384 211 384 c 0
 122 384 62 452 62 550 c 0
134 0 m 5x7f80
 548 708 l 1
 634 708 l 1
 221 0 l 5
 134 0 l 5x7f80
EndSplineSet
EndChar

StartChar: ampersand
Encoding: 38 38 67
Width: 685
VWidth: 1048
Flags: W
HStem: -7 66<211.562 413.062> 416 66<212.332 280> 643 65<202 532>
VStem: 54 76<141.873 332.998> 524 76<177.676 438>
LayerCount: 2
Fore
SplineSet
122 646 m 1
 122 708 l 1
 532 708 l 1
 532 643 l 1
 202 643 l 1
 634 0 l 1
 542 0 l 1
 122 646 l 1
600 438 m 5
 600 294 l 6
 600 112 476 -7 311 -7 c 0
 159 -7 54 85 54 241 c 0
 54 356 142 482 278 482 c 2
 280 482 l 1
 313 416 l 1
 309 416 l 2
 199 416 130 350 130 241 c 0
 130 129 189 59 309 59 c 0
 443 59 524 143 524 294 c 6
 524 438 l 5
 600 438 l 5
EndSplineSet
Colour: ff0000
EndChar

StartChar: quotesingle
Encoding: 39 39 68
Width: 158
VWidth: 1048
Flags: W
HStem: 515 254<49 109>
VStem: 40 78<566.703 769> 49 60<515 717.297>
LayerCount: 2
Fore
SplineSet
109 515 m 5xa0
 49 515 l 5xa0
 40 769 l 1
 118 769 l 1xc0
 109 515 l 5xa0
EndSplineSet
EndChar

StartChar: parenleft
Encoding: 40 40 69
Width: 349
VWidth: 1048
Flags: W
VStem: 62 78<203.107 538.402>
LayerCount: 2
Fore
SplineSet
235 800 m 5
 325 800 l 5
 243 740 140 596 140 368 c 0
 140 141 249 6 324 -59 c 2
 230 -59 l 1
 229 -59 l 2
 123 26 62 191 62 368 c 0
 62 522 99 691 235 800 c 5
EndSplineSet
EndChar

StartChar: parenright
Encoding: 41 41 70
Width: 349
VWidth: 1048
Flags: W
VStem: 208 80<198.968 542.072>
LayerCount: 2
Fore
SplineSet
24 -59 m 1
 106 1 208 145 208 373 c 0
 208 600 100 735 25 800 c 6
 119 800 l 5
 120 800 l 6
 226 715 288 550 288 373 c 0
 288 219 250 50 114 -59 c 1
 24 -59 l 1
EndSplineSet
EndChar

StartChar: asterisk
Encoding: 42 42 71
Width: 550
VWidth: 1048
Flags: W
HStem: 690 20G<88.1176 155.818 370.788 438.176>
VStem: 228 70<653.235 806>
LayerCount: 2
Fore
SplineSet
183 450 m 5
 126 490 l 5
 186 577 l 5
 247 639 l 5
 283 611 l 5
 245 536 l 5
 183 450 l 5
340 577 m 5
 400 490 l 5
 343 450 l 5
 282 536 l 5
 244 611 l 5
 280 639 l 5
 340 577 l 5
74 642 m 5
 94 710 l 5
 196 677 l 5
 272 639 l 5
 259 596 l 5
 174 610 l 5
 74 642 l 5
331 677 m 5
 432 710 l 5
 453 642 l 5
 352 610 l 5
 267 596 l 5
 254 639 l 5
 331 677 l 5
228 699 m 5
 228 806 l 5
 298 806 l 5
 298 699 l 5
 286 616 l 5
 241 616 l 5
 228 699 l 5
EndSplineSet
EndChar

StartChar: plus
Encoding: 43 43 72
Width: 597
VWidth: 1048
Flags: W
HStem: 252 70<74 500>
VStem: 250 70<74 500>
LayerCount: 2
Fore
SplineSet
250 74 m 5
 250 500 l 5
 320 500 l 5
 320 74 l 5
 250 74 l 5
74 252 m 5
 74 322 l 5
 500 322 l 5
 500 252 l 5
 74 252 l 5
EndSplineSet
EndChar

StartChar: comma
Encoding: 44 44 73
Width: 234
VWidth: 1048
Flags: W
HStem: -149 227
VStem: 31 149
LayerCount: 2
Fore
SplineSet
102 78 m 5
 180 78 l 5
 98 -149 l 5
 31 -149 l 5
 102 78 l 5
EndSplineSet
EndChar

StartChar: hyphen
Encoding: 45 45 74
Width: 450
VWidth: 1048
Flags: W
HStem: 249 70<74 378>
VStem: 74 304<249 319>
LayerCount: 2
Fore
SplineSet
74 249 m 5
 74 319 l 5
 378 319 l 5
 378 249 l 5
 74 249 l 5
EndSplineSet
EndChar

StartChar: period
Encoding: 46 46 75
Width: 249
VWidth: 1048
Flags: W
HStem: -13 126<73.8528 171.287>
VStem: 60 126<1.64258 98.3574>
LayerCount: 2
Fore
SplineSet
122 -13 m 0
 84 -13 60 16 60 50 c 0
 60 84 84 113 122 113 c 0
 160 113 186 84 186 50 c 0
 186 16 160 -13 122 -13 c 0
EndSplineSet
Validated: 1
EndChar

StartChar: slash
Encoding: 47 47 76
Width: 415
VWidth: 1048
Flags: W
HStem: 749 20G<331.457 419>
LayerCount: 2
Fore
SplineSet
-3 -34 m 5
 340 769 l 5
 419 769 l 5
 76 -34 l 5
 -3 -34 l 5
EndSplineSet
EndChar

StartChar: zero
Encoding: 48 48 77
Width: 550
VWidth: 1048
Flags: W
HStem: -7 65<196.155 345.107> 650 65<195.285 351.36>
VStem: 32 80<176.419 537.304> 436 80<181.363 534.366>
LayerCount: 2
Fore
SplineSet
273 650 m 0
 158 650 112 549 112 358 c 0
 112 161 161 58 272 58 c 0
 387 58 436 170 436 360 c 0
 436 547 389 650 273 650 c 0
272 -7 m 0
 110 -7 32 122 32 357 c 0
 32 588 106 715 273 715 c 0
 441 715 516 586 516 360 c 0
 516 132 440 -7 272 -7 c 0
EndSplineSet
Validated: 1
EndChar

StartChar: one
Encoding: 49 49 78
Width: 550
VWidth: 1048
Flags: HW
HStem: 0 69<74 484> 687 20G<214.595 334>
VStem: 254 80<0 629>
LayerCount: 2
Fore
SplineSet
74 0 m 1
 74 69 l 1
 484 69 l 1
 484 0 l 1
 74 0 l 1
254 630 m 5
 56 503 l 1
 56 586 l 1
 246 708 l 5
 334 708 l 5
 334 0 l 1
 254 0 l 1
 254 630 l 5
EndSplineSet
Colour: ff0000
EndChar

StartChar: two
Encoding: 50 50 79
Width: 550
VWidth: 1048
Flags: W
HStem: 0 72<157 480> 652 64<171.641 334.214>
VStem: 392 80<416.131 594.832>
LayerCount: 2
Fore
SplineSet
308 331 m 1
 374 405 392 449 392 520 c 0
 392 596 338 652 254 652 c 4
 179 652 133 607 101 569 c 1
 56 615 l 1
 81 648 137 716 252 716 c 0
 389 716 472 627 472 517 c 0
 472 424 433 362 370 295 c 0
 368.062455425 292.939436722 157 74 157 72 c 1
 480 72 l 1
 480 0 l 1
 62 0 l 1
 62 71 l 1
 308 331 l 1
EndSplineSet
EndChar

StartChar: three
Encoding: 51 51 80
Width: 550
VWidth: 1048
Flags: HW
HStem: -7 65<157.296 349.341> 366 65<275 353.058> 643 65<72 380>
VStem: 422 78<129.885 299.568>
LayerCount: 2
Fore
SplineSet
72 644 m 1
 72 708 l 1
 472 708 l 1
 472 645 l 1
 275 431 l 1
 401 429 500 353 500 219 c 0
 500 83 408 -7 257 -7 c 0
 140 -7 89 40 38 106 c 1
 88 148 l 1
 112 111 154 57 251 57 c 4
 341 57 422 97 422 221 c 0
 422 318 353 366 256 366 c 2
 195 366 l 1
 187 429 l 1
 380 644 l 1
 72 644 l 1
EndSplineSet
EndChar

StartChar: four
Encoding: 52 52 81
Width: 550
VWidth: 1048
Flags: W
HStem: 0 21G<334 412> 164 70<132 514> 688 20G<295.283 389>
VStem: 334 78<0 395>
LayerCount: 2
Fore
SplineSet
306 708 m 5
 389 708 l 5
 132 234 l 5
 52 234 l 5
 306 708 l 5
52 164 m 5
 52 234 l 5
 514 234 l 5
 514 164 l 5
 52 164 l 5
334 0 m 5
 334 395 l 5
 412 395 l 5
 412 0 l 5
 334 0 l 5
EndSplineSet
EndChar

StartChar: five
Encoding: 53 53 82
Width: 550
VWidth: 1048
Flags: W
HStem: -7 65<156.33 345.33> 384 66<190.672 346.347> 637 71<170 460>
VStem: 78 75<346 445.801> 416 78<130.675 315.141>
LayerCount: 2
Fore
SplineSet
131 355 m 1
 156 422 214 450 281 450 c 0
 377 450 494 377 494 225 c 0
 494 76 384 -7 253 -7 c 0
 182 -7 99 14 44 94 c 1
 97 135 l 1
 115 108 153 58 253 58 c 0
 337 58 416 101 416 221 c 0
 416 329 356 384 255 384 c 0
 228 384 183 379 152 348 c 1
 130 352 l 1
 131 355 l 1
104 708 m 5
 179 708 l 5
 153 346 l 1
 78 346 l 1
 104 708 l 5
170 708 m 5
 460 708 l 5
 460 637 l 5
 152 637 l 5
 170 708 l 5
EndSplineSet
EndChar

StartChar: six
Encoding: 54 54 83
Width: 550
VWidth: 1048
Flags: W
HStem: -7 65<196.145 362.882> 416 66<196.146 365.815> 653 63<220.511 390.84>
VStem: 44 76<146.161 505.51> 436 80<140.091 338.882>
LayerCount: 2
Fore
SplineSet
436 239 m 0
 436 342 383 416 282 416 c 0
 187 416 120 349 120 248 c 0
 120 125 179 58 282 58 c 0
 386 58 436 142 436 239 c 0
44 318 m 0
 44 593 148 716 303 716 c 0
 380 716 446 685 493 609 c 5
 445 575 l 5
 429 602 393 653 304 653 c 0
 182 653 120 548 118 395 c 1
 155 457 233 482 292 482 c 0
 421 482 516 396 516 239 c 0
 516 98 410 -7 282 -7 c 0
 128 -7 44 86 44 318 c 0
EndSplineSet
Validated: 1
EndChar

StartChar: seven
Encoding: 55 55 84
Width: 550
VWidth: 1048
Flags: W
HStem: -0 21G<136 223.563> 642 66<44 490> 642 5<411 490>
LayerCount: 2
Back
SplineSet
46 647 m 1xd0
 118 647 l 1
 118 519 l 1
 46 519 l 1
 46 647 l 1xd0
EndSplineSet
Fore
SplineSet
44 642 m 5xc0
 44 708 l 5
 490 708 l 5
 490 642 l 5
 44 642 l 5xc0
136 -0 m 5
 411 647 l 5
 492 647 l 5xa0
 215 -0 l 5
 136 -0 l 5
EndSplineSet
Validated: 5
Colour: ff0000
EndChar

StartChar: eight
Encoding: 56 56 85
Width: 550
VWidth: 1048
Flags: W
HStem: -7 66<180.691 372.607> 336 66<161 387> 649 66<191.603 356.937>
VStem: 46 78<115.725 277.959> 62 78<448.911 598.538> 410 78<450.17 597.609> 426 78<109.89 273.114>
LayerCount: 2
Fore
SplineSet
426 193 m 0xf2
 426 278 368 336 274 336 c 0
 182 336 124 284 124 201 c 0
 124 90 196 59 274 59 c 0
 356 59 426 87 426 193 c 0xf2
410 520 m 0xec
 410 609 351 649 274 649 c 0
 197 649 140 608 140 519 c 0
 140 445 191 402 274 402 c 0
 358 402 410 445 410 520 c 0xec
274 -7 m 0
 161 -7 46 47 46 194 c 0
 46 330 153 398 274 398 c 0
 395 398 504 330 504 194 c 0xf2
 504 47 387 -7 274 -7 c 0
274 341 m 0
 161 341 62 404 62 518 c 0
 62 657 161 715 274 715 c 0
 387 715 488 657 488 518 c 0xec
 488 404 387 341 274 341 c 0
EndSplineSet
Validated: 5
EndChar

StartChar: nine
Encoding: 57 57 86
Width: 550
VWidth: 1048
Flags: W
HStem: -7 63<153.066 336.345> 228 64<194.864 360.546> 651 65<196.342 362.783>
VStem: 46 76<370.029 568.698> 438 78<291.591 558.4>
LayerCount: 2
Fore
SplineSet
122 470 m 0
 122 367 176 292 277 292 c 0
 372 292 438 360 438 461 c 0
 438 583 380 651 277 651 c 0
 173 651 122 567 122 470 c 0
516 391 m 0
 516 117 401 -7 249 -7 c 0
 142 -7 89 41 56 85 c 5
 100 124 l 5
 102 122 l 6
 138 71 198 56 248 56 c 0
 370 56 429 153 439 313 c 1
 402 252 326 228 267 228 c 0
 138 228 46 313 46 470 c 0
 46 610 136 716 277 716 c 0
 431 716 516 613 516 391 c 0
EndSplineSet
Validated: 1
EndChar

StartChar: colon
Encoding: 58 58 87
Width: 313
VWidth: 1048
Flags: W
HStem: -8 126<108.79 204.303> 401 126<107.853 205.287>
VStem: 94 126<6.23584 102.951 415.643 512.357>
LayerCount: 2
Fore
SplineSet
156 401 m 0
 118 401 94 430 94 464 c 0
 94 498 118 527 156 527 c 0
 194 527 220 498 220 464 c 0
 220 430 194 401 156 401 c 0
156 -8 m 0
 118 -8 94 20 94 54 c 0
 94 88 118 118 156 118 c 0
 194 118 220 88 220 54 c 0
 220 20 194 -8 156 -8 c 0
EndSplineSet
Validated: 1
EndChar

StartChar: semicolon
Encoding: 59 59 88
Width: 278
VWidth: 1048
Flags: W
HStem: 401 126<90.2827 187.717>
VStem: 38 67<-144 -80.6177> 76 126<415.643 512.357>
LayerCount: 2
Fore
SplineSet
109 83 m 1xc0
 187 83 l 1
 187 85 105 -142 105 -144 c 1
 38 -144 l 1
 38 -142 109 85 109 83 c 1xc0
139 401 m 0
 101 401 76 430 76 464 c 0
 76 498 101 527 139 527 c 0
 177 527 202 498 202 464 c 0xa0
 202 430 177 401 139 401 c 0
EndSplineSet
Validated: 37
EndChar

StartChar: less
Encoding: 60 60 89
Width: 564
VWidth: 1048
Flags: W
LayerCount: 2
Fore
SplineSet
62 254 m 1
 62 330 l 1
 62 330 481 503 481 505 c 1
 481 503 511 436 511 438 c 1
 511 436 62 254 62 254 c 1
62 227 m 1
 62 303 l 1
 62 303 511 121 511 119 c 1
 511 121 481 54 481 52 c 1
 481 54 62 227 62 227 c 1
EndSplineSet
Validated: 37
EndChar

StartChar: equal
Encoding: 61 61 90
Width: 597
VWidth: 1048
Flags: W
HStem: 156 70<74 500> 347 71<74 500>
LayerCount: 2
Fore
SplineSet
74 347 m 1
 74 345 74 416 74 418 c 1
 500 418 l 1
 500 416 500 345 500 347 c 1
 74 347 l 1
74 156 m 1
 74 158 74 228 74 226 c 1
 500 226 l 1
 500 228 500 158 500 156 c 1
 74 156 l 1
EndSplineSet
Validated: 37
EndChar

StartChar: greater
Encoding: 62 62 91
Width: 609
VWidth: 1048
Flags: W
LayerCount: 2
Fore
SplineSet
510 330 m 1
 510 254 l 1
 510 254 61 436 61 438 c 1
 61 436 91 503 91 505 c 1
 91 503 510 330 510 330 c 1
510 303 m 1
 510 227 l 1
 510 227 91 54 91 52 c 1
 91 54 61 121 61 119 c 1
 61 121 510 303 510 303 c 1
EndSplineSet
Validated: 37
EndChar

StartChar: question
Encoding: 63 63 92
Width: 517
VWidth: 1048
Flags: W
HStem: -8 126<190.79 286.303> 665 67<146.384 324.158>
VStem: 176 126<6.23584 102.951> 188 70<183.348 315.139> 372 76<471.182 619.065>
LayerCount: 2
Fore
SplineSet
38 637 m 1xd8
 74 677 131 732 235 732 c 0
 365 732 448 666 448 541 c 0
 447 455 381 401 324 355 c 0
 315 348 307 341 299 334 c 0
 259 300 258 270 258 232 c 0
 258 212 260 197 263 185 c 1
 263 183 195 175 195 177 c 1
 193 191 188 213 188 238 c 0
 188 314 226 362 273 397 c 0
 325 436 372 477 372 538 c 0
 372 631 318 665 235 665 c 0
 150 665 107 616 86 588 c 1
 86 586 38 635 38 637 c 1xd8
238 -8 m 0
 200 -8 176 20 176 54 c 0
 176 88 200 118 238 118 c 0
 276 118 302 88 302 54 c 0xe8
 302 20 276 -8 238 -8 c 0
EndSplineSet
Validated: 33
EndChar

StartChar: at
Encoding: 64 64 93
Width: 954
Flags: W
HStem: -96 69<365.911 644.527> 128 70<386.757 528.286> 510 70<411.425 561.663> 731 69<355.48 612.072>
VStem: 46 76<223.383 499.403> 262 78<244.697 430.488> 832 76<270.98 515.329>
LayerCount: 2
Fore
SplineSet
496 -27 m 0
 579 -27 618 -18 670 6 c 1
 670 8 670 -68 670 -70 c 1
 622 -87 573 -96 492 -96 c 0
 242 -96 46 68 46 364 c 0
 46 655 268 800 484 800 c 0
 725 800 908 632 908 384 c 0
 908 287 876 196 812 134 c 1
 812 132 744 124 744 126 c 1
 744 124 567 224 567 226 c 1
 567 224 626 279 626 281 c 1
 626 279 770 194 770 196 c 1
 800 238 832 308 832 388 c 0
 832 603 676 731 484 731 c 0
 299 731 122 608 122 364 c 0
 122 133 279 -27 496 -27 c 0
632 570 m 1
 693 570 l 1
 657 243 l 1
 579 239 l 1
 608 499 l 1
 632 570 l 1
449 128 m 0
 343 128 262 205 262 320 c 0
 262 474 369 580 489 580 c 0
 572 580 645 517 654 458 c 0
 667 370 668 370 668 370 c 1
 667 369 l 2
 630 208 548 128 449 128 c 0
604 438 m 1
 585 483 538 510 485 510 c 0
 398 510 340 438 340 325 c 0
 340 242 389 198 457 198 c 0
 540 198 583 265 593 358 c 1
 604 438 l 1
EndSplineSet
Validated: 37
EndChar

StartChar: gravecomb
Encoding: 768 768 95
Width: 0
VWidth: 1048
Flags: HW
HStem: 744 187
VStem: -127 255
AnchorPoint: "AccentCenter" 0 840 mark 0
LayerCount: 2
Fore
SplineSet
128 796 m 5
 91 744 l 5
 -127 867 l 5
 -81 931 l 5
 128 796 l 5
EndSplineSet
EndChar

StartChar: acutecomb
Encoding: 769 769 96
Width: 0
VWidth: 1048
Flags: HW
HStem: 744 187
VStem: -126 254
AnchorPoint: "AccentCenter" 6 840 mark 0
LayerCount: 2
Fore
SplineSet
128 867 m 5
 -91 744 l 5
 -126 796 l 5
 81 931 l 5
 128 867 l 5
EndSplineSet
EndChar

StartChar: uni0302
Encoding: 770 770 97
Width: 0
VWidth: 1048
Flags: HW
HStem: 744 186
VStem: -34 68<908.203 930>
AnchorPoint: "AccentCenter" 0 840 mark 0
LayerCount: 2
Fore
SplineSet
-167 795 m 5
 -34 930 l 5
 34 930 l 5
 167 795 l 5
 123 744 l 5
 0 864 l 5
 -123 744 l 5
 -167 795 l 5
EndSplineSet
EndChar

StartChar: tildecomb
Encoding: 771 771 98
Width: 0
VWidth: 1048
Flags: HW
HStem: 774 70<34.0796 126.459> 844 72<-125.225 -17.7091>
VStem: 207 1<876 876.907>
AnchorPoint: "AccentCenter" 0 840 mark 0
LayerCount: 2
Fore
SplineSet
207 876 m 5xa0
 207 876 181 774 82 774 c 0xa0
 6 774 -13 844 -70 844 c 0
 -143 844 -152 770 -152 770 c 2
 -152 766 l 1
 -208 809 l 1
 -204 828 -172 916 -63 916 c 0x60
 -1 916 34 844 84 844 c 0
 126 844 142 886 143 921 c 5
 208 877 l 5
 207 876 l 5xa0
EndSplineSet
EndChar

StartChar: uni030A
Encoding: 778 778 100
Width: 0
VWidth: 1048
Flags: W
HStem: 743 54<-41.0668 41.0668> 883 54<-41.0668 41.0668>
VStem: -100 54<803.067 876.933> 46 54<803.067 876.933>
AnchorPoint: "Ring" 0 840 mark 0
LayerCount: 2
Fore
SplineSet
0 883 m 4
 -26 883 -46 866 -46 840 c 4
 -46 814 -26 797 0 797 c 4
 26 797 46 814 46 840 c 4
 46 866 26 883 0 883 c 4
0 743 m 4
 -55 743 -100 784 -100 840 c 4
 -100 896 -55 937 0 937 c 4
 55 937 100 896 100 840 c 4
 100 784 55 743 0 743 c 4
EndSplineSet
Validated: 1
EndChar

StartChar: uni0308
Encoding: 776 776 101
Width: 0
VWidth: 1048
Flags: W
HStem: 800 109<-148.602 -60.676 60.676 148.602>
VStem: -160 110<811.463 897.153> 50 110<811.463 897.153>
AnchorPoint: "AccentCenter" 0 860 mark 0
LayerCount: 2
Fore
SplineSet
104 800 m 0
 74 800 50 824 50 854 c 0
 50 884 74 909 104 909 c 0
 134 909 160 884 160 854 c 0
 160 824 134 800 104 800 c 0
-104 800 m 0
 -134 800 -160 824 -160 854 c 0
 -160 884 -134 909 -104 909 c 0
 -74 909 -50 884 -50 854 c 0
 -50 824 -74 800 -104 800 c 0
EndSplineSet
Validated: 1
EndChar

StartChar: dotlessi
Encoding: 305 305 116
Width: 313
VWidth: 1048
Flags: W
HStem: 0 21G<132 212> 454 65<30 154>
VStem: 132 22<453.955 519> 154 58<454 518.861>
AnchorPoint: "AccentCenter" 157 694 basechar 0
LayerCount: 2
Fore
SplineSet
30 454 m 1xe0
 30 452 30 517 30 519 c 1
 154 519 l 1
 154 517 154 452 154 454 c 1
 30 454 l 1xe0
212 0 m 1xd0
 132 0 l 1
 132 2 132 517 132 519 c 1xe0
 212 519 l 1
 212 517 212 2 212 0 c 1xd0
EndSplineSet
Validated: 1048613
EndChar

StartChar: sterling
Encoding: 163 163 153
Width: 601
Flags: W
HStem: 0 69<159 540> 64 5<62 159> 312 70<34 428> 650 65<256.042 430.549>
VStem: 120 76<429.75 593.58> 194 78<174.677 310.927>
LayerCount: 2
Fore
SplineSet
34 312 m 1x30
 34 382 l 1
 428 382 l 1
 428 312 l 1
 34 312 l 1x30
62 0 m 5xb0
 62 69 l 5x70
 540 69 l 5
 540 0 l 5
 62 0 l 5xb0
63 85 m 5
 63 85 194 117 194 268 c 0x74
 194 352 120 419 120 526 c 0
 120 615 188 715 339 715 c 0
 469 715 517 649 556 595 c 1
 501 552 l 1
 458 616 423 650 336 650 c 0
 265 650 196 603 196 526 c 0x78
 196 418 272 372 272 266 c 0x74
 272 143 203 89 159 64 c 5
 62 64 l 5
 62 84 l 5
 63 85 l 5
EndSplineSet
Validated: 5
EndChar

StartChar: AE
Encoding: 198 198 154
Width: 907
VWidth: 1048
Flags: W
HStem: 0 66<490 854> 182 66<188 422> 348 70<490 776> 641 66<490 854>
VStem: 418 4<182 248 705 707> 490 4<0 66.0444 348 418 640.956 707>
AnchorPoint: "AccentCenter" 539 880 basechar 0
LayerCount: 2
Fore
SplineSet
490 348 m 1
 490 418 l 1
 776 418 l 1
 776 348 l 1
 490 348 l 1
490 0 m 1
 490 2 490 68 490 66 c 1
 854 66 l 1
 854 68 854 2 854 0 c 1
 490 0 l 1
490 641 m 1
 490 639 490 705 490 707 c 1
 854 707 l 1
 854 705 854 639 854 641 c 1
 490 641 l 1
418 0 m 1
 418 2 418 705 418 707 c 1
 494 707 l 1
 494 705 494 2 494 0 c 1
 418 0 l 1
188 182 m 1
 188 248 l 1
 422 248 l 1
 422 182 l 1
 188 182 l 1
36 0 m 1
 36 2 371 705 371 707 c 1
 422 707 l 1
 422 705 430 661 430 663 c 1
 430 661 118 2 118 0 c 1
 118 2 36 2 36 0 c 1
EndSplineSet
Validated: 1048613
EndChar

StartChar: Euro
Encoding: 8364 8364 155
Width: 672
Flags: W
HStem: -7 66<308.482 509.063> 232 70<30 425> 422 70<30 489> 650 66<315.416 509.774>
VStem: 106 78<258.519 417.661>
LayerCount: 2
Fore
SplineSet
106 352 m 0
 106 585 235 716 410 716 c 0
 514 716 583 670 628 600 c 1
 585 557 l 1
 546 612 504 650 411 650 c 0
 277 650 184 546 184 352 c 0
 184 163 269 59 403 59 c 0
 503 59 550 101 586 147 c 1
 624 97 l 1
 623 96 l 2
 576 38 495 -7 402 -7 c 0
 227 -7 106 124 106 352 c 0
30 232 m 1
 30 302 l 1
 447 302 l 1
 425 232 l 1
 30 232 l 1
30 422 m 1
 30 492 l 1
 513 492 l 1
 489 422 l 1
 30 422 l 1
EndSplineSet
Validated: 5
EndChar

StartChar: yen
Encoding: 165 165 156
Width: 627
VWidth: 1048
Flags: W
HStem: 0 21G<276 354> 140 66<116 514> 296 64<116 272 276 283 348 354 359 514> 322 16<276 348> 687 20G<35 140 487.208 592>
VStem: 276 78<0 338>
AnchorPoint: "AccentCenter" 312 880 basechar 0
LayerCount: 2
Fore
SplineSet
116 140 m 5xcc
 116 206 l 5
 514 206 l 5
 514 140 l 5
 116 140 l 5xcc
116 296 m 5xec
 116 360 l 5
 514 360 l 5
 514 296 l 5
 116 296 l 5xec
276 0 m 5
 276 338 l 5
 354 338 l 5xdc
 354 0 l 5
 276 0 l 5
499 707 m 5
 592 707 l 5
 348 322 l 5
 272 322 l 5
 499 707 l 5
283 322 m 5
 35 707 l 5
 128 707 l 5
 359 322 l 5
 283 322 l 5
EndSplineSet
Validated: 1048581
EndChar

StartChar: ae
Encoding: 230 230 157
Width: 877
Flags: W
HStem: -8 65<160.127 326.165 543.883 717.454> 240 66<165.26 394 472 750> 461 66<173.208 347.278 534.746 696.803>
VStem: 54 78<83.6025 210.17> 394 78<138 240 306 394> 394 42<99 163> 750 74<306 404.662>
AnchorPoint: "AccentCenter" 289 686 basechar 0
LayerCount: 2
Fore
SplineSet
472 306 m 1xfa
 750 306 l 1
 750 318 l 2
 750 413 698 462 621 462 c 0
 517 462 473 394 472 306 c 1xfa
394 261 m 0xf6
 394 421 475 527 622 527 c 0
 732 527 824 446 824 306 c 0
 824 273 819 258 809 240 c 1
 472 240 l 1xfa
 473 138 520 57 621 57 c 0
 704 57 743 90 772 130 c 1
 772 132 821 88 821 86 c 1
 767 28 717 -8 619 -8 c 0
 478 -8 394 99 394 261 c 0xf6
288 240 m 2
 180 240 132 224 132 148 c 0
 132 87 166 57 240 57 c 0
 326 57 394 110 394 215 c 2
 394 240 l 1
 288 240 l 2
236 -8 m 0
 124 -8 54 52 54 148 c 0
 54 254 133 306 274 306 c 2
 394 306 l 1
 394 306 394 344 394 345 c 2
 394 426 338 461 262 461 c 0
 183 461 147 422 128 398 c 1
 128 396 81 435 81 437 c 1
 81 435 82 437 82 439 c 2
 116 494 184 527 264 527 c 0
 374 527 446 472 458 331 c 0
 471 177 472 177 472 177 c 1xfa
 472 178 436 163 436 162 c 1xf6
 433 56 326 -8 236 -8 c 0
EndSplineSet
Validated: 1048613
EndChar

StartChar: eth
Encoding: 240 240 158
Width: 596
Flags: W
HStem: -8 65<213.852 381.824> 463 65<213.362 378.558> 688 27G<186 318 464 464>
VStem: 54 76<149.482 372.152> 466 76<149.391 385.111>
LayerCount: 2
Fore
SplineSet
199 604 m 1
 199 602 464 706 464 708 c 1
 464 706 464 644 464 646 c 1
 464 644 201 540 201 542 c 1
 201 540 199 602 199 604 c 1
297 463 m 0
 211 463 130 403 130 266 c 0
 130 118 204 57 301 57 c 0
 394 57 466 127 466 255 c 0
 466 318 453 377 432 411 c 1
 390 445 341 463 297 463 c 0
291 715 m 1
 345 681 542 545 542 260 c 0
 542 100 439 -8 300 -8 c 0
 158 -8 54 88 54 274 c 0
 54 412 150 528 285 528 c 0
 341 528 388 508 424 473 c 1
 384 559 274 669 195 710 c 2
 195 708 186 713 186 715 c 1
 291 715 l 1
EndSplineSet
Validated: 37
EndChar

StartChar: thorn
Encoding: 254 254 159
Width: 607
VWidth: 1048
Flags: W
HStem: -3 56<214.141 390.919> 466 56<220.547 399.559>
VStem: 480 68<151.83 378.535>
LayerCount: 2
Fore
SplineSet
158 703 m 1
 90 703 l 1
 90 701 90 -185 90 -187 c 1
 158 -187 l 1
 158 -185 158 701 158 703 c 1
124 101 m 1
 140 61 201 -3 312 -3 c 0
 438 -3 548 90 548 258 c 0
 548 446 439 522 316 522 c 0
 203 522 140 444 120 398 c 1
 120 396 145 338 145 340 c 1
 152 414 227 466 312 466 c 0
 415 466 480 402 480 257 c 0
 480 125 404 53 308 53 c 0
 226 53 153 96 145 170 c 1
 145 172 124 103 124 101 c 1
EndSplineSet
Validated: 37
EndChar

StartChar: currency
Encoding: 164 164 160
Width: 654
Flags: W
HStem: -8 21G<82.4255 122.164 531.836 571.574> 20 64<246.332 407.668> 434 66<246.332 407.668>
VStem: 92 66<172.354 344.656> 496 66<172.354 344.656>
LayerCount: 2
Fore
SplineSet
429 114 m 5
 475 161 l 5
 598 39 l 5
 552 -8 l 5
 429 114 l 5
179 160 m 5
 225 114 l 5
 102 -8 l 5
 56 39 l 5
 179 160 l 5
225 407 m 5
 179 360 l 5
 56 482 l 5
 102 529 l 5
 225 407 l 5
474 360 m 5
 428 406 l 5
 552 529 l 5
 598 482 l 5
 474 360 l 5
327 434 m 4
 233 434 158 357 158 260 c 4
 158 163 233 84 327 84 c 4
 421 84 496 163 496 260 c 4
 496 357 421 434 327 434 c 4
327 20 m 4
 198 20 92 128 92 260 c 4
 92 392 198 500 327 500 c 4
 456 500 562 392 562 260 c 4
 562 128 456 20 327 20 c 4
EndSplineSet
Validated: 5
EndChar

StartChar: oslash
Encoding: 248 248 161
Width: 596
VWidth: 1048
Flags: W
HStem: -8 65<206.693 379.987> 0 21G<51 145> 462 58<215.797 396.105>
VStem: 54 76<148.125 367.92> 466 76<153.385 365.754>
AnchorPoint: "AccentCenter" 295 686 basechar 0
LayerCount: 2
Fore
SplineSet
451 520 m 1x78
 545 520 l 1
 545 518 145 2 145 0 c 1
 145 2 51 3 51 -0 c 1
 51 2 451 518 451 520 c 1x78
296 462 m 0
 206 462 130 392 130 258 c 0
 130 124 206 57 296 57 c 0xb8
 387 57 466 124 466 258 c 0
 466 392 386 462 296 462 c 0
296 -8 m 0
 169 -8 54 94 54 261 c 0
 54 428 160 527 296 527 c 0
 432 527 542 428 542 261 c 0
 542 94 432 -8 296 -8 c 0
EndSplineSet
Validated: 1048613
EndChar

StartChar: uni0327
Encoding: 807 807 163
Width: 0
Flags: HWO
HStem: -224 61<-124 -47.5728> -216 53<-124 -89.3823> -20 20G<-38 38>
VStem: -38 76<-156.135 0>
LayerCount: 2
Fore
SplineSet
-91 -163 m 2xb0
 -57 -163 -38 -146 -38 -106 c 2
 -38 0 l 1
 38 0 l 1
 38 -105 l 2
 38 -176 -9 -224 -89 -224 c 0xb0
 -97 -224 -115 -224 -137 -216 c 1x70
 -124 -163 l 1
 -91 -163 l 2xb0
EndSplineSet
EndChar

StartChar: Thorn
Encoding: 222 222 164
Width: 557
Flags: W
HStem: 0 21G<86 162> 148 66<118 363.976> 506 64<128 367.152> 688 20G<86 162>
VStem: 86 76<0 148 214 506 570 708> 118 44<148 214> 128 34<506 570> 426 78<273.318 446.5>
LayerCount: 2
Fore
SplineSet
128 506 m 1xf3
 128 570 l 1xf3
 288 570 l 2
 409 570 504 491 504 356 c 0
 504 234 406 148 282 148 c 2
 118 148 l 1
 118 214 l 1xf5
 282 214 l 2
 369 214 426 266 426 357 c 0
 426 447 375 506 288 506 c 2
 128 506 l 1xf3
86 0 m 1xf9
 86 2 86 706 86 708 c 1
 162 708 l 1
 162 706 162 2 162 0 c 1
 86 0 l 1xf9
EndSplineSet
Validated: 5
EndChar

StartChar: section
Encoding: 167 167 165
Width: 567
Flags: W
HStem: -191 64<143.559 362.111> 703 65<205.146 404.621>
VStem: 28 78<272.037 418.739> 68 78<503.13 648.015> 422 76<-73.0865 72.3075> 462 76<157.631 305.288>
LayerCount: 2
Fore
SplineSet
152 442 m 1xe8
 141 434 106 409 106 350 c 0
 106 270 144 235 251 213 c 1
 301 202 l 2
 429 175 498 110 498 2 c 0
 498 -111 405 -191 255 -191 c 0
 120 -191 62 -147 7 -76 c 5
 61 -30 l 5
 97 -85 145 -127 259 -127 c 0
 377 -127 422 -73 422 0 c 0
 422 86 363 118 269 137 c 2
 223 147 l 1
 93 170 28 243 28 348 c 0
 28 393 44 449 105 492 c 1
 152 442 l 1xe8
420 137 m 1
 430 145 462 171 462 232 c 0
 462 318 403 349 309 368 c 2
 263 378 l 1
 133 401 68 475 68 580 c 0
 68 687 160 768 313 768 c 0
 377 768 466 748 530 654 c 1
 475 615 l 1
 453 649 410 703 308 703 c 0
 199 703 146 651 146 580 c 0
 146 500 184 466 291 444 c 1
 341 433 l 2
 469 406 538 340 538 232 c 0xd4
 538 183 522 130 464 87 c 1
 420 137 l 1
EndSplineSet
Validated: 5
EndChar

StartChar: mu
Encoding: 181 181 166
Width: 586
VWidth: 1048
Flags: W
HStem: -7 64<211.71 371.408> 0 65<494 564> 499 20G<86 164 430 508>
VStem: 86 78<-191 519> 145 5<135.611 191> 430 78<32.616 65 218 519> 494 14<0 65>
LayerCount: 2
Fore
SplineSet
494 0 m 5x62
 494 65 l 5
 564 65 l 5
 564 0 l 5
 494 0 l 5x62
430 81 m 5x64
 430 263 l 5
 508 263 l 5x64
 508 0 l 5x62
 442 0 l 5
 430 81 l 5x64
150 191 m 1xac
 150 109 211 57 300 57 c 0
 378 57 430 112 430 220 c 6
 430 519 l 5
 508 519 l 5
 508 218 l 5
 487 144 433 -7 306 -7 c 0
 208 -7 162 37 134 106 c 1
 145 191 l 1
 150 191 l 1xac
164 -191 m 1x30
 86 -191 l 1
 86 519 l 1
 164 519 l 1
 164 -191 l 1x30
EndSplineSet
EndChar

StartChar: paragraph
Encoding: 182 182 167
Width: 543
Flags: W
HStem: 0 65<442 514> 367 10<226 302> 644 64<442 514>
VStem: 38 264<451.789 627.599> 226 76<0 377> 370 144<0 65 644 708> 442 4<0 65 644 708>
LayerCount: 2
Fore
SplineSet
212 367 m 2xe8
 107 367 38 437 38 544 c 0xf0
 38 639 110 708 212 708 c 6
 302 708 l 5
 302 367 l 1
 212 367 l 2xe8
226 0 m 1xe8
 226 377 l 1
 302 377 l 1
 302 0 l 1
 226 0 l 1xe8
442 0 m 1xe2
 442 65 l 1xe2
 514 65 l 1
 514 0 l 1xe4
 442 0 l 1xe2
442 644 m 5
 442 708 l 5xe2
 514 708 l 5
 514 644 l 5xe4
 442 644 l 5
370 0 m 1xe4
 370 708 l 5xe4
 446 708 l 5
 446 0 l 1xe2
 370 0 l 1xe4
EndSplineSet
EndChar

StartChar: cent
Encoding: 162 162 168
Width: 537
VWidth: 1048
Flags: W
HStem: -10 64<214.788 378.085> 464 66<215.797 377.647>
VStem: 54 76<146.935 369.031> 256 78<-94 618>
LayerCount: 2
Fore
SplineSet
256 -94 m 1
 256 618 l 1
 334 618 l 1
 334 -94 l 1
 256 -94 l 1
296 530 m 0
 347 530 452 515 510 402 c 5
 448 367 l 5
 448 357 l 5
 444 367 l 6
 414 431 358 464 296 464 c 0
 206 464 130 394 130 258 c 0
 130 122 206 54 296 54 c 0
 335 54 405 68 444 150 c 5
 506 110 l 5
 505 108 l 6
 462 32 384 -10 296 -10 c 0
 169 -10 54 93 54 261 c 0
 54 429 160 530 296 530 c 0
EndSplineSet
Validated: 5
EndChar

StartChar: exclamdown
Encoding: 161 161 169
Width: 298
VWidth: 1048
Flags: W
HStem: 402 126<89.2435 184.756>
VStem: 74 126<417.049 513.764> 89 96<-196 66.3244>
LayerCount: 2
Fore
SplineSet
98 281 m 1xa0
 176 281 l 1
 176 283 185 -194 185 -196 c 1
 89 -196 l 1
 89 -194 98 283 98 281 c 1xa0
137 402 m 0
 99 402 74 432 74 466 c 0
 74 500 99 528 137 528 c 0
 175 528 200 500 200 466 c 0xc0
 200 432 175 402 137 402 c 0
EndSplineSet
Validated: 37
EndChar

StartChar: questiondown
Encoding: 191 191 170
Width: 517
VWidth: 1048
Flags: HW
HStem: -212 67<193.045 370.616> 402 126<231.244 326.756>
VStem: 69 77<-99.0652 50.4292> 216 126<417.049 513.764> 260 68<207.521 336.652>
LayerCount: 2
Fore
SplineSet
479 -117 m 5xe8
 443 -157 386 -212 282 -212 c 0
 152 -212 69 -146 69 -21 c 0
 70 65 136 119 193 165 c 0
 202 172 210 179 218 186 c 0
 258 220 260 250 260 288 c 0
 260 308 257 323 254 335 c 1
 322 343 l 1
 324 329 328 307 328 282 c 0
 328 206 291 158 244 123 c 0
 192 84 146 43 146 -18 c 0
 146 -111 199 -145 282 -145 c 0
 367 -145 410 -96 431 -68 c 5
 479 -117 l 5xe8
279 528 m 0
 317 528 342 500 342 466 c 0
 342 432 317 402 279 402 c 0
 241 402 216 432 216 466 c 0xf0
 216 500 241 528 279 528 c 0
EndSplineSet
EndChar

StartChar: onequarter
Encoding: 188 188 173
Width: 800
VWidth: 1048
Flags: W
HStem: 31.0039 69<497 753> 373 69<43 297>
VStem: 137 80<442 694> 615 76<-63.9961 192.004>
LayerCount: 2
Fore
SplineSet
577 388.00390625 m 1
 661 388.00390625 l 1
 497 100.00390625 l 1
 415 100.00390625 l 1
 577 388.00390625 l 1
415 31.00390625 m 1
 415 100.00390625 l 1
 753 100.00390625 l 5
 753 31.00390625 l 5
 415 31.00390625 l 1
615 -63.99609375 m 5
 615 192.00390625 l 5
 691 192.00390625 l 5
 691 -63.99609375 l 5
 615 -63.99609375 l 5
473 567 m 1
 539 527 l 1
 329 187 l 1
 265 227 l 1
 473 567 l 1
43 373 m 1
 43 442 l 1
 297 442 l 1
 297 373 l 1
 43 373 l 1
137 694 m 1
 37 640 l 1
 37 713 l 1
 147 772 l 1
 217 772 l 1
 217 442 l 1
 137 442 l 1
 137 694 l 1
EndSplineSet
EndChar

StartChar: onehalf
Encoding: 189 189 174
Width: 800
VWidth: 1048
Flags: W
HStem: -63.9961 64<580 758> 316.004 66<545.585 659.929> 373 69<40 294>
VStem: 134 80<442 694> 674 80<178.244 300.838>
LayerCount: 2
Fore
SplineSet
630 150.00390625 m 1xd8
 662 186.00390625 674 212.00390625 674 252.00390625 c 0
 674 286.00390625 651 316.00390625 612 316.00390625 c 0
 573 316.00390625 552 304.00390625 532 280.00390625 c 1
 494 319.00390625 l 1
 510 340.00390625 544 382.00390625 616 382.00390625 c 0
 701 382.00390625 754 319.00390625 754 250.00390625 c 0
 754 206.00390625 730.497070312 163.00390625 698 128.00390625 c 0
 697.038085938 126.967773438 580 1.00390625 580 0.00390625 c 5
 758 0.00390625 l 1
 758 -63.99609375 l 1
 498 -63.99609375 l 1
 498 4.00390625 l 1
 498 5.00390625 630 150.00390625 630 150.00390625 c 1xd8
470 567 m 1
 536 527 l 1
 326 187 l 1
 262 227 l 1
 470 567 l 1
40 373 m 1xb8
 40 442 l 1
 294 442 l 1
 294 373 l 1
 40 373 l 1xb8
134 694 m 1
 34 640 l 1
 34 713 l 1
 144 772 l 1
 214 772 l 1
 214 442 l 1
 134 442 l 1
 134 694 l 1
EndSplineSet
EndChar
